<?xml version="1.0" encoding="UTF-8" standalone="no"?>
<!-- Do not edit this file with editors other than diagrams.net -->

<svg
   version="1.1"
   width="864.30005"
   height="698.66071"
   viewBox="-0.5 -0.5 864.30005 698.66071"
   id="svg1136"
   sodipodi:docname="network-diagram-crop.svg"
   inkscape:version="1.3 (0e150ed, 2023-07-21)"
   inkscape:export-filename="network-diagram-crop.png"
   inkscape:export-xdpi="300"
   inkscape:export-ydpi="300"
   xmlns:inkscape="http://www.inkscape.org/namespaces/inkscape"
   xmlns:sodipodi="http://sodipodi.sourceforge.net/DTD/sodipodi-0.dtd"
   xmlns:xlink="http://www.w3.org/1999/xlink"
   xmlns="http://www.w3.org/2000/svg"
   xmlns:svg="http://www.w3.org/2000/svg">
  <sodipodi:namedview
     id="namedview1138"
     pagecolor="#ffffff"
     bordercolor="#666666"
     borderopacity="1.0"
     inkscape:showpageshadow="2"
     inkscape:pageopacity="0.0"
     inkscape:pagecheckerboard="0"
     inkscape:deskcolor="#d1d1d1"
     showgrid="false"
     inkscape:zoom="1.6649425"
     inkscape:cx="460.97689"
     inkscape:cy="325.53678"
     inkscape:window-width="1680"
     inkscape:window-height="997"
     inkscape:window-x="1920"
     inkscape:window-y="55"
     inkscape:window-maximized="1"
     inkscape:current-layer="svg1136" />
  <defs
     id="defs132">
    <symbol
       id="symbol1">
      <g
         id="use1"
         transform="translate(-757.3,-444.71041)">
        <path
           d="m 1228.03,490 v -36.25 h -47.79 V 490 Z m -3.67,22.6 v -3.15 l 5.77,-8.42 v 5.27 z m 0,-3.15 v 3.15 h -53.06 v -3.15 z m 14.7,0.52 3.67,-6.83 h -7.88 l -3.67,6.83 z m -7.88,0 h 7.88 v 2.63 h -7.88 z m 7.88,2.63 v -2.63 l 3.67,-6.83 v 4.73 z m -14.7,-3.15 h -53.06 l 6.3,-8.42 h 52.53 z"
           fill="#10739e"
           stroke="#ffffff"
           stroke-width="2"
           stroke-linejoin="round"
           stroke-miterlimit="10"
           pointer-events="none"
           id="path17" />
        <g
           id="g24">
          <path
             d="m 1239.06,503.66 c 1.06,-1.05 -3.67,-2.63 1.58,-3.15 3.15,-0.52 13.66,-6.82 -10.51,-6.82"
             fill="none"
             stroke="#000000"
             stroke-width="2"
             stroke-miterlimit="10"
             pointer-events="none"
             id="path18" />
          <path
             d="m 1184.43,502.09 v -5.79 h 38.87 v 5.79 z m 38.87,0 v -5.79 l 7.36,-7.88 v 5.79 z m -38.87,1.05 v -6.84 h 38.87 v 6.84 z m 38.87,0 v -6.84 l 7.36,-7.88 v 6.84 z m 10.51,-15.76 -5.78,7.88 h -47.79 l 7.34,-7.88 z m -53.57,10.5 v -2.62 h 45.69 v 2.62 z"
             fill="#10739e"
             stroke="#ffffff"
             stroke-width="2"
             stroke-linejoin="round"
             stroke-miterlimit="10"
             pointer-events="none"
             id="path19" />
          <path
             d="m 1233.81,487.38 -5.78,7.88 h -47.79 l 7.34,-7.88 z"
             fill="#10739e"
             stroke="#ffffff"
             stroke-width="2"
             stroke-linejoin="round"
             stroke-miterlimit="10"
             pointer-events="none"
             id="path20" />
          <path
             d="m 1180.24,497.88 v -2.62 h 45.69 v 2.62 z"
             fill="#10739e"
             stroke="#ffffff"
             stroke-width="2"
             stroke-linejoin="round"
             stroke-miterlimit="10"
             pointer-events="none"
             id="path21" />
          <path
             d="m 1225.93,497.88 v -2.62 l 7.88,-7.88 V 490 Z m 7.88,-47.28 h -41.5 l -12.07,3.15 h 47.79 z m -7.88,40.98 -2.11,-1.58 h -38.86 l 2.1,1.58 z m 0.52,0 -2.63,-2.1 9.99,-5.25 -6.3,6.31 z"
             fill="#10739e"
             stroke="#ffffff"
             stroke-width="2"
             stroke-linejoin="round"
             stroke-miterlimit="10"
             pointer-events="none"
             id="path22" />
          <path
             d="m 1228.03,453.75 v 35.73 l 5.78,-5.25 V 450.6 Z"
             fill="#10739e"
             stroke="#ffffff"
             stroke-width="2"
             stroke-linejoin="round"
             stroke-miterlimit="10"
             pointer-events="none"
             id="path23" />
          <path
             d="m 1187.06,457.44 c 33.61,0 33.61,0 33.61,0 2.63,0 4.21,1.58 4.21,3.67 0,21.55 0,21.55 0,21.55 0,2.09 -1.58,4.19 -4.21,4.19 -33.61,0 -33.61,0 -33.61,0 -2.1,0 -3.67,-2.1 -3.67,-4.19 0,-21.55 0,-21.55 0,-21.55 0,-2.09 1.57,-3.67 3.67,-3.67 z"
             fill="none"
             stroke="#ffffff"
             stroke-width="2"
             stroke-linejoin="round"
             stroke-miterlimit="10"
             pointer-events="none"
             id="path24" />
        </g>
      </g>
    </symbol>
    <symbol
       id="g8">
      <use
         xlink:href="#symbol1"
         id="use6"
         transform="translate(23.3,444.71041)" />
      <use
         xlink:href="#symbol1"
         id="use7"
         transform="translate(23.3,522.71041)" />
      <use
         xlink:href="#symbol1"
         id="use8"
         transform="translate(21.85,601.23041)" />
    </symbol>
    <symbol
       id="g38">
      <path
         d="M 76.64,50.5 V 25.23 H 0.5 V 50.5 Z M 0.5,25.23 31.16,0.5 H 101.5 L 76.12,25.23 Z M 76.64,50.5 101.5,23.13 V 0.5 L 76.64,25.23 Z"
         fill="#10739e"
         stroke="#ffffff"
         stroke-width="2"
         stroke-linejoin="round"
         stroke-miterlimit="10"
         pointer-events="none"
         id="path31" />
      <path
         d="m 44.92,18.91 -1.59,1.06 H 24.82 l -2.11,2.1 -5.28,-2.1 10.56,-3.16 -2.11,2.1 z m 14.8,-9.47 -1.59,1.58 H 39.63 L 37.51,12.6 32.23,10.5 42.81,7.86 40.68,9.44 Z m -11.63,6.32 1.59,-1.05 h 19.03 l 1.59,-2.11 5.28,2.11 -10.04,3.16 1.58,-2.11 z M 58.13,6.28 59.72,5.24 h 18.51 l 2.11,-2.12 5.3,2.64 -10.58,2.64 2.11,-2.12 z"
         fill="#ffffff"
         stroke="none"
         pointer-events="none"
         id="path32" />
    </symbol>
  </defs>
  <path
     d="m 181.72,12.04041 c -30.38,-5.84 -46.89,9.54 -44.24,23.32 0,0.53 0,0.53 0,0.53 -23.98,4.24 -17.58,32.33 -5.85,32.33 1.06,0 1.06,0 1.06,0 -3.2,13.26 25.05,26.5 40.51,19.62 1.05,-1.07 1.05,-1.07 1.05,-1.07 5.34,12.2 25.58,13.79 44.77,14.32 17.06,0.52 26.65,-0.53 34.12,-7.96 1.05,0 1.05,0 1.05,0 27.18,2.12 39.44,-16.42 33.58,-29.68 1.59,-0.53 1.59,-0.53 1.59,-0.53 9.07,-2.11 10.14,-23.33 -5.85,-26.51 0.53,-1.05 0.53,-1.05 0.53,-1.05 6.92,-13.78 -9.59,-26.5 -31.98,-24.39 -1.59,-0.52 -1.59,-0.52 -1.59,-0.52 -15.99,-14.84 -62.36,-12.2 -67.68,2.11 z"
     fill="#ffffff"
     stroke="#23445d"
     stroke-width="2"
     stroke-miterlimit="10"
     pointer-events="all"
     id="path134" />
  <g
     transform="translate(-414,-5.88959)"
     id="g140" />
  <text
     x="206.5"
     y="55.610409"
     fill="#23445d"
     font-family="Helvetica"
     font-size="24px"
     text-anchor="middle"
     font-weight="bold"
     id="text136">Internet</text>
  <path
     d="m 476.5,349.61041 v -56.53 h 56.61 v 56.53 z m 64,-6.93 v -57.07 l -7.39,7.47 v 56.53 z m -53.95,-57.07 -10.05,7.47 h 56.61 l 7.39,-7.47 z"
     fill="#10739e"
     stroke="#ffffff"
     stroke-width="2"
     stroke-linejoin="round"
     stroke-miterlimit="10"
     pointer-events="all"
     id="path142" />
  <path
     d="m 506.13,312.81041 v -12.26 h 2.11 l -3.18,-4.27 -2.65,4.27 H 504 v 12.26 z m -6.35,2.14 -8.47,-9.07 1.58,-1.07 -5.28,-1.06 1.06,5.33 1.05,-1.6 9,8.53 z m -3.17,5.86 h -12.18 v -2.13 l -4.23,2.67 4.23,3.2 v -2.14 h 12.18 z m 2.11,5.87 -9,9.07 -1.05,-1.6 -1.06,5.33 5.28,-1.07 -1.58,-1.6 8.47,-8.53 z m 5.28,3.2 v 12.27 h -1.59 l 2.65,4.8 3.18,-4.8 h -2.11 v -12.27 z m 6.35,-1.6 9,8.53 -1.59,1.6 5.28,1.07 -1.04,-5.33 -1.59,1.6 -8.47,-9.07 z m 3.17,-5.87 h 12.17 v 2.14 l 4.76,-3.2 -4.76,-2.67 v 2.13 h -12.17 z m -1.58,-6.4 8.47,-8.53 1.59,1.6 1.04,-5.33 -5.28,1.06 1.59,1.07 -9,9.07 z"
     fill="#ffffff"
     stroke="none"
     pointer-events="all"
     id="path144" />
  <path
     d="m 512.48,332.01041 c 5.8,-4.26 7.39,-12.26 3.17,-18.13 -3.71,-5.87 -11.65,-6.93 -17.46,-3.2 -5.82,4.27 -7.41,12.27 -3.17,18.13 4.22,5.87 12.15,7.47 17.46,3.2 z"
     fill="#ffffff"
     stroke="#036c9b"
     stroke-width="1.06"
     stroke-miterlimit="10"
     pointer-events="all"
     id="path146" />
  <path
     d="m 364.5,45.99041 c 0,8.47 -17.39,15.36 -39.01,15.36 -21.6,0 -38.99,-6.89 -38.99,-15.36 0,22.26 0,22.26 0,22.26 0,8.47 17.39,15.36 38.99,15.36 21.62,0 39.01,-6.89 39.01,-15.36 z m -39.01,15.36 c 21.62,0 39.01,-6.89 39.01,-15.36 0,-8.49 -17.39,-15.38 -39.01,-15.38 -21.6,0 -38.99,6.89 -38.99,15.38 0,8.47 17.39,15.36 38.99,15.36 z"
     fill="#10739e"
     stroke="#ffffff"
     stroke-width="2"
     stroke-linejoin="round"
     stroke-miterlimit="10"
     pointer-events="all"
     id="path148" />
  <path
     d="m 316.54,40.15041 3.16,4.77 -12.12,2.66 2.64,-2.13 -18.45,-3.18 4.74,-3.71 17.91,3.18 z m 17.4,11.66 -2.64,-4.77 11.06,-2.64 -1.58,2.11 17.92,3.18 -4.21,3.18 -18.45,-3.18 z m -6.33,-14.31 12.11,-3.18 0.54,4.77 -3.16,-0.53 -5.8,5.3 -5.81,-1.05 5.81,-4.77 z m -5.28,19.08 -11.59,2.13 -0.52,-5.84 3.68,1.07 6.33,-5.84 5.8,1.07 -6.86,6.36 z"
     fill="#ffffff"
     stroke="none"
     pointer-events="all"
     id="path150" />
  <path
     d="m 508,138.61041 -143.5,-64.08"
     fill="none"
     stroke="#23445d"
     stroke-width="4"
     stroke-miterlimit="10"
     pointer-events="stroke"
     id="path152" />
  <path
     d="M 518.88,149.11041 H 486.5 v 51.5 h 32.38 z m 0,51.5 10.62,-9.98 v -52.02 h -32.39 l -10.61,10.5 h 32.38 z"
     fill="#10739e"
     stroke="#ffffff"
     stroke-width="2"
     stroke-linejoin="round"
     stroke-miterlimit="10"
     pointer-events="all"
     id="path154" />
  <rect
     x="486.5"
     y="138.61041"
     width="0"
     height="0"
     fill="none"
     stroke="#ffffff"
     stroke-width="2"
     pointer-events="all"
     id="rect156" />
  <path
     d="m 518.88,149.11041 10.62,-10.5 m -43,30.47 h 32.38 m -32.38,23.65 h 32.38 m -24.42,-35.74 h 9.02 m 3.72,3.15 v -6.3 h -16.46 v 6.3 z"
     fill="none"
     stroke="#ffffff"
     stroke-width="2"
     stroke-miterlimit="10"
     pointer-events="all"
     id="path158" />
  <path
     d="m 508,200.61041 0.5,85"
     fill="none"
     stroke="#23445d"
     stroke-width="4"
     stroke-miterlimit="10"
     pointer-events="stroke"
     id="path160" />
  <text
     x="461.5"
     y="239.61041"
     fill="#000000"
     font-family="Helvetica"
     font-size="11px"
     text-anchor="middle"
     id="text162"
     style="font-size:16px"><tspan
       sodipodi:role="line"
       id="tspan6792"
       x="461.5"
       y="239.61041">Staff (2) &amp;</tspan><tspan
       sodipodi:role="line"
       id="tspan6794"
       x="461.5"
       y="259.61041">Student (3)</tspan><tspan
       sodipodi:role="line"
       x="461.5"
       y="279.61041"
       id="tspan6796">VLANs</tspan></text>
  <rect
     x="-327.5"
     y="373.21042"
     width="0"
     height="0"
     fill="none"
     stroke="#ffffff"
     stroke-width="2"
     pointer-events="none"
     id="rect172" />
  <rect
     x="-127.5"
     y="373.21042"
     width="0"
     height="0"
     fill="none"
     stroke="#ffffff"
     stroke-width="2"
     pointer-events="none"
     id="rect330" />
  <rect
     x="83.5"
     y="373.21042"
     width="0"
     height="0"
     fill="none"
     stroke="#ffffff"
     stroke-width="2"
     pointer-events="none"
     id="rect488" />
  <rect
     x="283.5"
     y="373.21042"
     width="0"
     height="0"
     fill="none"
     stroke="#ffffff"
     stroke-width="2"
     pointer-events="none"
     id="rect646" />
  <path
     d="m 134,373.21041 0.5,-55.6 h 342"
     fill="none"
     stroke="#23445d"
     stroke-width="4"
     stroke-miterlimit="10"
     pointer-events="none"
     id="path804" />
  <path
     d="m 334,373.21041 h 2.5 v -55.6 h 140"
     fill="none"
     stroke="#23445d"
     stroke-width="4"
     stroke-miterlimit="10"
     pointer-events="none"
     id="path806" />
  <rect
     x="603.5"
     y="373.21042"
     width="0"
     height="0"
     fill="none"
     stroke="#ffffff"
     stroke-width="2"
     pointer-events="none"
     id="rect812" />
  <path
     d="m 540.5,317.61041 121,1 -0.03,59.85"
     fill="none"
     stroke="#23445d"
     stroke-width="4"
     stroke-miterlimit="10"
     pointer-events="none"
     id="path966" />
  <text
     x="300.5"
     y="304.61041"
     fill="#000000"
     font-family="Helvetica"
     font-size="12px"
     text-anchor="middle"
     id="text968"
     style="font-size:16px">Student network (192.168.103.0/24)</text>
  <text
     x="681.5"
     y="304.61041"
     fill="#000000"
     font-family="Helvetica"
     font-size="12px"
     text-anchor="middle"
     id="text974"
     style="font-size:16px">Staff network (192.168.102.0/24)</text>
  <text
     x="1009"
     y="152"
     fill="#000000"
     font-family="Helvetica"
     font-size="16px"
     text-anchor="middle"
     id="text980"
     style="white-space:pre;inline-size:125.492;display:inline"
     xml:space="preserve"
     transform="translate(-413.5,-5.38959)"><tspan
       x="1009"
       y="152"
       id="tspan7">Aegis<tspan
   y="152"
   id="tspan8"> </tspan></tspan><tspan
       x="1009"
       y="172"
       id="tspan9">(scouthack)&#10;</tspan><tspan
       x="1009"
       y="192"
       id="tspan10">192.168.101.1/24&#10;</tspan><tspan
       x="1009"
       y="212"
       id="tspan11">192.168.102.1/24&#10;</tspan><tspan
       x="1009"
       y="232"
       id="tspan12">192.168.103.1/24</tspan></text>
  <path
     d="m 704.5,398.21041 h 16 q 10,0 20,0.03 l 16,0.04"
     fill="none"
     stroke="#23445d"
     stroke-width="4"
     stroke-miterlimit="10"
     pointer-events="none"
     id="path986" />
  <rect
     x="730.80005"
     y="437.87909"
     width="133"
     height="260.28162"
     rx="19.950001"
     ry="8.4432821"
     fill-opacity="0.6"
     fill="#bac8d3"
     stroke="none"
     pointer-events="none"
     id="rect988"
     style="stroke-width:0.650555" />
  <text
     x="795.5"
     y="685.61041"
     fill="#23445d"
     font-family="Helvetica"
     font-size="14px"
     text-anchor="middle"
     font-weight="bold"
     id="text990">Staff Wifi</text>
  <path
     d="m 769.19,343.61041 v 5.3 h 0.77 v 7.78 h -0.22 c -1.12,0 -2.02,0.92 -2.02,2.06 v 12.62 h -4.34 c -3.79,0 -6.88,3.17 -6.88,7.06 v 39.72 c 0,3.89 3.09,7.06 6.88,7.06 h 67.84 c 3.79,0 6.88,-3.17 6.88,-7.06 v -39.72 c 0,-3.89 -3.09,-7.06 -6.88,-7.06 h -4.68 v -12.62 c 0,-1.14 -0.9,-2.06 -2.01,-2.06 h -0.22 v -7.78 h 0.76 v -5.3 h -3.8 v 5.3 h 0.76 v 7.78 h -0.22 c -1.12,0 -2.02,0.92 -2.02,2.06 v 12.62 h -45.32 v -12.62 c 0,-1.14 -0.9,-2.06 -2.02,-2.06 h -0.22 v -7.78 h 0.76 v -5.3 z m -5.81,29.9 h 67.84 c 2.67,0 4.79,2.18 4.79,4.92 v 39.72 c 0,2.74 -2.12,4.92 -4.79,4.92 h -67.84 c -2.67,0 -4.79,-2.18 -4.79,-4.92 v -39.72 c 0,-2.74 2.12,-4.92 4.79,-4.92 z m 12.71,25.56 c -1.51,0 -2.7,0.9 -3.53,1.88 -0.42,0.5 -0.78,1.05 -1.09,1.59 -0.22,-0.37 -0.46,-0.73 -0.73,-1.06 -0.74,-0.94 -1.76,-1.73 -3.06,-1.73 -1.33,0 -2.5,0.83 -3.37,1.81 -0.84,0.94 -1.45,2.03 -1.5,3.1 h -0.67 c 0,1.42 0.71,2.62 1.67,3.7 0.96,1.07 2.25,2.03 3.87,2.03 1.56,0 2.77,-0.96 3.58,-1.98 0.38,-0.48 0.71,-0.99 0.99,-1.5 0.25,0.4 0.52,0.79 0.82,1.14 0.76,0.91 1.76,1.65 3.02,1.65 1.26,0 2.24,-0.8 2.98,-1.71 0.33,-0.41 0.62,-0.85 0.89,-1.29 0.37,0.57 0.78,1.15 1.24,1.69 0.83,0.98 1.78,2 3.29,2 1.33,0 2.35,-0.82 3.18,-1.75 0.49,-0.55 0.94,-1.18 1.36,-1.86 0.31,0.53 0.64,1.02 1,1.45 0.72,0.85 1.68,1.47 2.87,1.47 1.24,0 2.2,-0.77 2.93,-1.67 0.33,-0.41 0.63,-0.87 0.91,-1.32 0.32,0.55 0.67,1.13 1.09,1.67 0.77,1.01 1.93,2.01 3.47,2.01 1.5,0 2.66,-0.92 3.44,-1.91 0.42,-0.54 0.78,-1.13 1.11,-1.7 0.28,0.47 0.57,0.92 0.9,1.34 0.7,0.88 1.68,1.58 2.96,1.58 1.28,0 2.26,-0.72 2.96,-1.61 0.33,-0.42 0.62,-0.87 0.89,-1.34 0.33,0.57 0.69,1.15 1.11,1.7 0.78,0.99 1.94,1.94 3.44,1.94 1.5,0 2.68,-0.92 3.48,-1.92 0.41,-0.52 0.77,-1.08 1.09,-1.64 0.21,0.39 0.45,0.79 0.72,1.16 0.67,0.93 1.69,1.71 3.12,1.71 1.49,0 2.7,-0.93 3.53,-1.96 0.83,-1.03 1.34,-2.12 1.34,-3.08 h 0.67 c 0,-2.86 -2.29,-5.59 -5.54,-5.59 -1.64,0 -2.94,0.86 -3.7,1.88 -0.41,0.55 -0.72,1.13 -1,1.69 -0.24,-0.39 -0.49,-0.77 -0.76,-1.13 -0.72,-0.93 -1.67,-1.76 -2.95,-1.76 -1.25,0 -2.2,0.77 -2.91,1.68 -0.31,0.4 -0.59,0.83 -0.86,1.28 -0.33,-0.6 -0.7,-1.21 -1.15,-1.78 -0.77,-0.97 -1.97,-1.86 -3.48,-1.86 -1.5,0 -2.71,0.86 -3.48,1.83 -0.45,0.57 -0.82,1.18 -1.16,1.78 -0.26,-0.45 -0.54,-0.88 -0.85,-1.27 -0.72,-0.91 -1.67,-1.66 -2.92,-1.66 -1.27,0 -2.23,0.82 -2.95,1.75 -0.3,0.39 -0.57,0.81 -0.83,1.24 -0.34,-0.58 -0.72,-1.19 -1.18,-1.75 -0.78,-0.98 -1.93,-1.92 -3.44,-1.92 -1.4,0 -2.58,0.76 -3.37,1.7 -0.5,0.58 -0.91,1.23 -1.29,1.92 -0.34,-0.52 -0.7,-1 -1.06,-1.42 -0.77,-0.86 -1.65,-1.52 -2.69,-1.52 -1.13,0 -2,0.84 -2.79,1.77 -0.33,0.39 -0.65,0.82 -0.94,1.25 -0.34,-0.57 -0.72,-1.18 -1.17,-1.74 -0.8,-0.99 -1.97,-1.96 -3.5,-1.96 z m -8.41,2.06 c 0.78,0 1.42,0.45 2.03,1.22 0.37,0.46 0.71,1.03 1.01,1.62 -0.01,0.03 -0.03,0.06 -0.04,0.09 -0.44,0.93 -0.95,1.93 -1.49,2.61 -0.55,0.69 -0.99,0.97 -1.51,0.97 -0.46,0 -1.27,-0.43 -1.89,-1.13 -0.63,-0.71 -0.97,-1.68 -0.97,-1.85 h -0.66 c 0.06,-0.52 0.48,-1.45 1.13,-2.18 0.71,-0.79 1.64,-1.35 2.39,-1.35 z m 16.81,0 c 0.46,0 1.05,0.34 1.7,1.07 0.43,0.49 0.87,1.13 1.31,1.85 -0.6,1.1 -1.24,2.1 -1.81,2.74 -0.58,0.66 -1.03,0.85 -1.2,0.85 0.01,0 -0.63,-0.29 -1.27,-1.05 -0.61,-0.72 -1.23,-1.7 -1.71,-2.51 0.37,-0.58 0.78,-1.17 1.2,-1.66 0.69,-0.82 1.41,-1.29 1.78,-1.29 z m 16.81,0 c 0.75,0 1.29,0.39 1.88,1.14 0.38,0.48 0.75,1.11 1.12,1.78 -0.61,1.05 -1.14,2.06 -1.65,2.71 -0.52,0.66 -0.85,0.88 -1.35,0.88 -0.44,0 -0.83,-0.25 -1.37,-0.96 -0.52,-0.68 -1.04,-1.67 -1.62,-2.62 0.36,-0.61 0.72,-1.22 1.09,-1.71 0.61,-0.78 1.18,-1.22 1.9,-1.22 z m 16.81,0 c 0.72,0 1.29,0.44 1.9,1.23 0.37,0.49 0.73,1.1 1.09,1.72 -0.54,1.01 -1.07,2 -1.59,2.65 -0.53,0.67 -0.9,0.91 -1.4,0.91 -0.48,0 -0.81,-0.22 -1.34,-0.9 -0.51,-0.66 -1.04,-1.66 -1.65,-2.68 0.38,-0.66 0.74,-1.28 1.12,-1.77 0.59,-0.76 1.13,-1.16 1.87,-1.16 z m -42.02,0.68 c 0.44,0 0.88,0.28 1.43,0.97 0.56,0.68 1.09,1.68 1.62,2.59 0.01,0.01 0.01,0.02 0.02,0.03 -0.35,0.61 -0.72,1.22 -1.12,1.71 -0.62,0.77 -1.23,1.22 -1.95,1.22 -0.74,0 -1.39,-0.43 -2.01,-1.17 -0.4,-0.48 -0.77,-1.07 -1.1,-1.68 0.04,-0.07 0.07,-0.15 0.11,-0.22 0.42,-0.9 0.95,-1.86 1.5,-2.52 0.55,-0.65 1.02,-0.93 1.5,-0.93 z m 16.81,0 c 0.45,0 0.83,0.25 1.38,0.92 0.54,0.67 1.08,1.68 1.68,2.65 -0.38,0.65 -0.76,1.28 -1.17,1.78 -0.6,0.75 -1.18,1.17 -1.89,1.17 -0.78,0 -1.29,-0.32 -1.86,-1 -0.41,-0.48 -0.81,-1.14 -1.23,-1.9 0.02,-0.04 0.04,-0.07 0.06,-0.1 0.63,-1.18 1.18,-2.17 1.67,-2.76 0.5,-0.58 0.79,-0.76 1.36,-0.76 z m 16.81,0 c 0.6,0 0.9,0.22 1.4,0.85 0.5,0.63 1.02,1.65 1.66,2.72 0,0.01 0.01,0.01 0.01,0.02 -0.39,0.69 -0.76,1.33 -1.15,1.83 -0.57,0.71 -1.09,1.1 -1.92,1.1 -0.84,0 -1.36,-0.37 -1.93,-1.08 -0.38,-0.49 -0.75,-1.14 -1.15,-1.84 0.01,-0.02 0.02,-0.03 0.02,-0.04 0.64,-1.1 1.16,-2.11 1.65,-2.73 0.5,-0.62 0.79,-0.83 1.41,-0.83 z m 16.81,0 c 1.79,0 2.86,1.48 2.86,2.85 h 0.67 c 0,0.29 -0.37,1.37 -1.03,2.21 -0.67,0.83 -1.56,1.46 -2.5,1.46 -1,0 -1.51,-0.42 -2.05,-1.16 -0.35,-0.49 -0.67,-1.11 -1.02,-1.77 0.01,-0.02 0.03,-0.05 0.04,-0.08 0.6,-1.11 1.02,-2.12 1.46,-2.7 0.43,-0.58 0.69,-0.81 1.57,-0.81 z"
     fill="#005073"
     stroke="none"
     pointer-events="none"
     id="path1124" />
  <rect
     x="531.33923"
     y="437.63599"
     width="160"
     height="260.28162"
     rx="24"
     ry="10.157331"
     fill-opacity="0.6"
     fill="#bac8d3"
     stroke="none"
     pointer-events="none"
     id="rect808"
     style="stroke-width:0.650555" />
  <path
     d="m 667.8393,422.63599 v 46 q 0,10 -10,9.81 l -43.47,-0.83"
     fill="none"
     stroke="#23445d"
     stroke-width="4"
     stroke-miterlimit="10"
     pointer-events="none"
     id="path816" />
  <path
     d="m 667.8393,422.63599 v 116 q 0,10 -10,10 h -31.5 q -10,0 -9.99,-1 l 0.01,-1.01"
     fill="none"
     stroke="#23445d"
     stroke-width="4"
     stroke-miterlimit="10"
     pointer-events="none"
     id="path818" />
  <path
     d="m 667.8393,422.63599 v 186 q 0,10 -10,10.19 l -40.49,0.78"
     fill="none"
     stroke="#23445d"
     stroke-width="4"
     stroke-miterlimit="10"
     pointer-events="none"
     id="path820" />
  <text
     x="599.5"
     y="685.61041"
     fill="#23445d"
     font-family="Helvetica"
     font-size="14px"
     text-anchor="middle"
     font-weight="bold"
     id="text828">Staff</text>
  <rect
     x="197.5"
     y="437.87909"
     width="160"
     height="260.28162"
     rx="24"
     ry="10.157331"
     fill-opacity="0.6"
     fill="#bac8d3"
     stroke="none"
     pointer-events="none"
     id="rect3136"
     style="stroke-width:0.650555" />
  <path
     d="m 334,423.21041 v 46 q 0,10 -10,9.81 l -43.47,-0.83"
     fill="none"
     stroke="#23445d"
     stroke-width="4"
     stroke-miterlimit="10"
     pointer-events="none"
     id="path650" />
  <path
     d="m 334,423.21041 v 116 q 0,10 -10,10 h -31.5 q -10,0 -9.99,-1 l 0.01,-1.01"
     fill="none"
     stroke="#23445d"
     stroke-width="4"
     stroke-miterlimit="10"
     pointer-events="none"
     id="path652" />
  <path
     d="m 334,423.21041 v 186 q 0,10 -10,10.19 l -40.49,0.78"
     fill="none"
     stroke="#23445d"
     stroke-width="4"
     stroke-miterlimit="10"
     pointer-events="none"
     id="path654" />
  <text
     x="279.5"
     y="685.61041"
     fill="#23445d"
     font-family="Helvetica"
     font-size="14px"
     text-anchor="middle"
     font-weight="bold"
     id="text662">Classroom 2</text>
  <rect
     x="-0.5"
     y="437.87909"
     width="160"
     height="260.28162"
     rx="24"
     ry="10.157331"
     fill-opacity="0.6"
     fill="#bac8d3"
     stroke="none"
     pointer-events="none"
     id="rect3203"
     style="stroke-width:0.650555" />
  <path
     d="m 136,423.21041 v 46 q 0,10 -10,9.81 l -43.47,-0.83"
     fill="none"
     stroke="#23445d"
     stroke-width="4"
     stroke-miterlimit="10"
     pointer-events="none"
     id="path3209" />
  <path
     d="m 136,423.21041 v 116 q 0,10 -10,10 H 94.5 q -10,0 -9.99,-1 l 0.01,-1.01"
     fill="none"
     stroke="#23445d"
     stroke-width="4"
     stroke-miterlimit="10"
     pointer-events="none"
     id="path3211" />
  <path
     d="m 136,423.21041 v 186 q 0,10 -10,10.19 l -40.49,0.78"
     fill="none"
     stroke="#23445d"
     stroke-width="4"
     stroke-miterlimit="10"
     pointer-events="none"
     id="path3213" />
  <text
     x="83.5"
     y="685.61041"
     fill="#23445d"
     font-family="Helvetica"
     font-size="14px"
     text-anchor="middle"
     font-weight="bold"
     id="text3221">Classroom 1</text>
  <use
     xlink:href="#g8"
     id="use1-8"
     transform="translate(-413.5,-5.38959)" />
  <use
     xlink:href="#g8"
     id="use1-1"
     transform="translate(-213.5,-5.38959)" />
  <use
     xlink:href="#g8"
     id="use1-4"
     transform="translate(120.5,-5.38959)" />
  <use
     xlink:href="#g8"
     id="use1-35"
     transform="translate(320.5,-5.38959)" />
  <use
     xlink:href="#g38"
     id="use1-0"
     transform="translate(83.027012,372.71041)" />
  <use
     xlink:href="#g38"
     id="use1-3"
     transform="translate(285.11115,372.71041)" />
  <use
     xlink:href="#g38"
     id="use1-5"
     transform="translate(613.3685,372.71041)" />
</svg>
