<?xml version="1.0" encoding="UTF-8"?>
<svg width="864" height="699" version="1.1" viewBox="-.5 -.5 864 699" xmlns="http://www.w3.org/2000/svg" xmlns:xlink="http://www.w3.org/1999/xlink">
 <defs>
  <symbol id="b">
   <g transform="translate(-757 -445)">
    <path d="m1228 490v-36.2h-47.8v36.2zm-3.67 22.6v-3.15l5.77-8.42v5.27zm0-3.15v3.15h-53.1v-3.15zm14.7 0.52 3.67-6.83h-7.88l-3.67 6.83zm-7.88 0h7.88v2.63h-7.88zm7.88 2.63v-2.63l3.67-6.83v4.73zm-14.7-3.15h-53.1l6.3-8.42h52.5z" fill="#10739e" pointer-events="none" stroke="#fff" stroke-linejoin="round" stroke-miterlimit="10" stroke-width="2"/>
    <path d="m1239 504c1.06-1.05-3.67-2.63 1.58-3.15 3.15-0.52 13.7-6.82-10.5-6.82" fill="none" pointer-events="none" stroke="#000" stroke-miterlimit="10" stroke-width="2"/>
    <path d="m1184 502v-5.79h38.9v5.79zm38.9 0v-5.79l7.36-7.88v5.79zm-38.9 1.05v-6.84h38.9v6.84zm38.9 0v-6.84l7.36-7.88v6.84zm10.5-15.8-5.78 7.88h-47.8l7.34-7.88zm-53.6 10.5v-2.62h45.7v2.62z" fill="#10739e" pointer-events="none" stroke="#fff" stroke-linejoin="round" stroke-miterlimit="10" stroke-width="2"/>
    <path d="m1234 487-5.78 7.88h-47.8l7.34-7.88z" fill="#10739e" pointer-events="none" stroke="#fff" stroke-linejoin="round" stroke-miterlimit="10" stroke-width="2"/>
    <path d="m1180 498v-2.62h45.7v2.62z" fill="#10739e" pointer-events="none" stroke="#fff" stroke-linejoin="round" stroke-miterlimit="10" stroke-width="2"/>
    <path d="m1226 498v-2.62l7.88-7.88v2.62zm7.88-47.3h-41.5l-12.1 3.15h47.8zm-7.88 41-2.11-1.58h-38.9l2.1 1.58zm0.52 0-2.63-2.1 9.99-5.25-6.3 6.31z" fill="#10739e" pointer-events="none" stroke="#fff" stroke-linejoin="round" stroke-miterlimit="10" stroke-width="2"/>
    <path d="m1228 454v35.7l5.78-5.25v-33.6z" fill="#10739e" pointer-events="none" stroke="#fff" stroke-linejoin="round" stroke-miterlimit="10" stroke-width="2"/>
    <path d="m1187 457h33.6c2.63 0 4.21 1.58 4.21 3.67v21.6c0 2.09-1.58 4.19-4.21 4.19h-33.6c-2.1 0-3.67-2.1-3.67-4.19v-21.6c0-2.09 1.57-3.67 3.67-3.67z" fill="none" pointer-events="none" stroke="#fff" stroke-linejoin="round" stroke-miterlimit="10" stroke-width="2"/>
   </g>
  </symbol>
  <symbol id="a">
   <use transform="translate(23.3 445)" xlink:href="#b"/>
   <use transform="translate(23.3 523)" xlink:href="#b"/>
   <use transform="translate(21.8 601)" xlink:href="#b"/>
  </symbol>
  <symbol id="c">
   <path d="m76.6 50.5v-25.3h-76.1v25.3zm-76.1-25.3 30.7-24.7h70.3l-25.4 24.7zm76.1 25.3 24.9-27.4v-22.6l-24.9 24.7z" fill="#10739e" pointer-events="none" stroke="#fff" stroke-linejoin="round" stroke-miterlimit="10" stroke-width="2"/>
   <path d="m44.9 18.9-1.59 1.06h-18.5l-2.11 2.1-5.28-2.1 10.6-3.16-2.11 2.1zm14.8-9.47-1.59 1.58h-18.5l-2.12 1.58-5.28-2.1 10.6-2.64-2.13 1.58zm-11.6 6.32 1.59-1.05h19l1.59-2.11 5.28 2.11-10 3.16 1.58-2.11zm10-9.48 1.59-1.04h18.5l2.11-2.12 5.3 2.64-10.6 2.64 2.11-2.12z" fill="#fff" pointer-events="none"/>
  </symbol>
 </defs>
 <path d="m182 12c-30.4-5.84-46.9 9.54-44.2 23.3v0.53c-24 4.24-17.6 32.3-5.85 32.3h1.06c-3.2 13.3 25 26.5 40.5 19.6l1.05-1.07c5.34 12.2 25.6 13.8 44.8 14.3 17.1 0.52 26.6-0.53 34.1-7.96h1.05c27.2 2.12 39.4-16.4 33.6-29.7 1.59-0.53 1.59-0.53 1.59-0.53 9.07-2.11 10.1-23.3-5.85-26.5l0.53-1.05c6.92-13.8-9.59-26.5-32-24.4l-1.59-0.52c-16-14.8-62.4-12.2-67.7 2.11z" fill="#fff" pointer-events="all" stroke="#23445d" stroke-miterlimit="10" stroke-width="2"/>
 <text x="206.5" y="55.610409" fill="#23445d" font-family="Helvetica" font-size="24px" font-weight="bold" text-anchor="middle">Internet</text>
 <g pointer-events="all">
  <path d="m476 350v-56.5h56.6v56.5zm64-6.93v-57.1l-7.39 7.47v56.5zm-54-57.1-10 7.47h56.6l7.39-7.47z" fill="#10739e" stroke="#fff" stroke-linejoin="round" stroke-miterlimit="10" stroke-width="2"/>
  <path d="m506 313v-12.3h2.11l-3.18-4.27-2.65 4.27h1.59v12.3zm-6.35 2.14-8.47-9.07 1.58-1.07-5.28-1.06 1.06 5.33 1.05-1.6 9 8.53zm-3.17 5.86h-12.2v-2.13l-4.23 2.67 4.23 3.2v-2.14h12.2zm2.11 5.87-9 9.07-1.05-1.6-1.06 5.33 5.28-1.07-1.58-1.6 8.47-8.53zm5.28 3.2v12.3h-1.59l2.65 4.8 3.18-4.8h-2.11v-12.3zm6.35-1.6 9 8.53-1.59 1.6 5.28 1.07-1.04-5.33-1.59 1.6-8.47-9.07zm3.17-5.87h12.2v2.14l4.76-3.2-4.76-2.67v2.13h-12.2zm-1.58-6.4 8.47-8.53 1.59 1.6 1.04-5.33-5.28 1.06 1.59 1.07-9 9.07z" fill="#fff"/>
  <path d="m512 332c5.8-4.26 7.39-12.3 3.17-18.1-3.71-5.87-11.6-6.93-17.5-3.2-5.82 4.27-7.41 12.3-3.17 18.1 4.22 5.87 12.2 7.47 17.5 3.2z" fill="#fff" stroke="#036c9b" stroke-miterlimit="10" stroke-width="1.06"/>
  <path d="m364 46c0 8.47-17.4 15.4-39 15.4-21.6 0-39-6.89-39-15.4v22.3c0 8.47 17.4 15.4 39 15.4 21.6 0 39-6.89 39-15.4zm-39 15.4c21.6 0 39-6.89 39-15.4 0-8.49-17.4-15.4-39-15.4-21.6 0-39 6.89-39 15.4 0 8.47 17.4 15.4 39 15.4z" fill="#10739e" stroke="#fff" stroke-linejoin="round" stroke-miterlimit="10" stroke-width="2"/>
  <path d="m317 40.2 3.16 4.77-12.1 2.66 2.64-2.13-18.4-3.18 4.74-3.71 17.9 3.18zm17.4 11.7-2.64-4.77 11.1-2.64-1.58 2.11 17.9 3.18-4.21 3.18-18.4-3.18zm-6.33-14.3 12.1-3.18 0.54 4.77-3.16-0.53-5.8 5.3-5.81-1.05 5.81-4.77zm-5.28 19.1-11.6 2.13-0.52-5.84 3.68 1.07 6.33-5.84 5.8 1.07-6.86 6.36z" fill="#fff"/>
 </g>
 <path d="m508 139-144-64.1" fill="none" pointer-events="stroke" stroke="#23445d" stroke-miterlimit="10" stroke-width="4"/>
 <path d="m519 149h-32.4v51.5h32.4zm0 51.5 10.6-9.98v-52h-32.4l-10.6 10.5h32.4z" fill="#10739e" pointer-events="all" stroke="#fff" stroke-linejoin="round" stroke-miterlimit="10" stroke-width="2"/>
 <g fill="none">
  <rect x="486" y="139" width="0" height="0" pointer-events="all" stroke="#fff" stroke-width="2"/>
  <path d="m519 149 10.6-10.5m-43 30.5h32.4m-32.4 23.6h32.4m-24.4-35.7h9.02m3.72 3.15v-6.3h-16.5v6.3z" pointer-events="all" stroke="#fff" stroke-miterlimit="10" stroke-width="2"/>
  <path d="m508 201 0.5 85" pointer-events="stroke" stroke="#23445d" stroke-miterlimit="10" stroke-width="4"/>
 </g>
 <text x="461.5" y="239.61041" fill="#000000" font-family="Helvetica" font-size="16px" text-anchor="middle"><tspan x="461.5" y="239.61041">Staff (2) &amp;</tspan><tspan x="461.5" y="259.61041">Student (3)</tspan><tspan x="461.5" y="279.61041">VLANs</tspan></text>
 <g fill="none" pointer-events="none">
  <g stroke="#fff" stroke-width="2">
   <rect x="-328" y="373" width="0" height="0"/>
   <rect x="-128" y="373" width="0" height="0"/>
   <rect x="83.5" y="373" width="0" height="0"/>
   <rect x="284" y="373" width="0" height="0"/>
  </g>
  <path d="m134 373 0.5-55.6h342" stroke="#23445d" stroke-miterlimit="10" stroke-width="4"/>
  <path d="m334 373h2.5v-55.6h140" stroke="#23445d" stroke-miterlimit="10" stroke-width="4"/>
  <rect x="604" y="373" width="0" height="0" stroke="#fff" stroke-width="2"/>
  <path d="m540 318 121 1-0.03 59.8" stroke="#23445d" stroke-miterlimit="10" stroke-width="4"/>
 </g>
 <g fill="#000000" font-family="Helvetica" font-size="16px" text-anchor="middle">
  <text x="300.5" y="304.61041">Student network (192.168.103.0/24)</text>
  <text x="681.5" y="304.61041">Staff network (192.168.102.0/24)</text>
  <text transform="translate(-414 -5.39)" x="1009" y="152" style="inline-size:125.492;white-space:pre" xml:space="preserve"><tspan x="1009" y="152">Aegis<tspan y="152"> </tspan></tspan><tspan x="1009" y="172">(scouthack)
</tspan><tspan x="1009" y="192">192.168.101.1/24
</tspan><tspan x="1009" y="212">192.168.102.1/24
</tspan><tspan x="1009" y="232">192.168.103.1/24</tspan></text>
 </g>
 <path d="m704 398h16q10 0 20 0.03l16 0.04" fill="none" pointer-events="none" stroke="#23445d" stroke-miterlimit="10" stroke-width="4"/>
 <rect x="731" y="438" width="133" height="260" rx="20" ry="8.44" fill="#bac8d3" fill-opacity=".6" pointer-events="none" stroke-width=".651"/>
 <text x="795.5" y="685.61041" fill="#23445d" font-family="Helvetica" font-size="14px" font-weight="bold" text-anchor="middle">Staff Wifi</text>
 <path d="m769 344v5.3h0.77v7.78h-0.22c-1.12 0-2.02 0.92-2.02 2.06v12.6h-4.34c-3.79 0-6.88 3.17-6.88 7.06v39.7c0 3.89 3.09 7.06 6.88 7.06h67.8c3.79 0 6.88-3.17 6.88-7.06v-39.7c0-3.89-3.09-7.06-6.88-7.06h-4.68v-12.6c0-1.14-0.9-2.06-2.01-2.06h-0.22v-7.78h0.76v-5.3h-3.8v5.3h0.76v7.78h-0.22c-1.12 0-2.02 0.92-2.02 2.06v12.6h-45.3v-12.6c0-1.14-0.9-2.06-2.02-2.06h-0.22v-7.78h0.76v-5.3zm-5.81 29.9h67.8c2.67 0 4.79 2.18 4.79 4.92v39.7c0 2.74-2.12 4.92-4.79 4.92h-67.8c-2.67 0-4.79-2.18-4.79-4.92v-39.7c0-2.74 2.12-4.92 4.79-4.92zm12.7 25.6c-1.51 0-2.7 0.9-3.53 1.88-0.42 0.5-0.78 1.05-1.09 1.59-0.22-0.37-0.46-0.73-0.73-1.06-0.74-0.94-1.76-1.73-3.06-1.73-1.33 0-2.5 0.83-3.37 1.81-0.84 0.94-1.45 2.03-1.5 3.1h-0.67c0 1.42 0.71 2.62 1.67 3.7 0.96 1.07 2.25 2.03 3.87 2.03 1.56 0 2.77-0.96 3.58-1.98 0.38-0.48 0.71-0.99 0.99-1.5 0.25 0.4 0.52 0.79 0.82 1.14 0.76 0.91 1.76 1.65 3.02 1.65s2.24-0.8 2.98-1.71c0.33-0.41 0.62-0.85 0.89-1.29 0.37 0.57 0.78 1.15 1.24 1.69 0.83 0.98 1.78 2 3.29 2 1.33 0 2.35-0.82 3.18-1.75 0.49-0.55 0.94-1.18 1.36-1.86 0.31 0.53 0.64 1.02 1 1.45 0.72 0.85 1.68 1.47 2.87 1.47 1.24 0 2.2-0.77 2.93-1.67 0.33-0.41 0.63-0.87 0.91-1.32 0.32 0.55 0.67 1.13 1.09 1.67 0.77 1.01 1.93 2.01 3.47 2.01 1.5 0 2.66-0.92 3.44-1.91 0.42-0.54 0.78-1.13 1.11-1.7 0.28 0.47 0.57 0.92 0.9 1.34 0.7 0.88 1.68 1.58 2.96 1.58s2.26-0.72 2.96-1.61c0.33-0.42 0.62-0.87 0.89-1.34 0.33 0.57 0.69 1.15 1.11 1.7 0.78 0.99 1.94 1.94 3.44 1.94s2.68-0.92 3.48-1.92c0.41-0.52 0.77-1.08 1.09-1.64 0.21 0.39 0.45 0.79 0.72 1.16 0.67 0.93 1.69 1.71 3.12 1.71 1.49 0 2.7-0.93 3.53-1.96s1.34-2.12 1.34-3.08h0.67c0-2.86-2.29-5.59-5.54-5.59-1.64 0-2.94 0.86-3.7 1.88-0.41 0.55-0.72 1.13-1 1.69-0.24-0.39-0.49-0.77-0.76-1.13-0.72-0.93-1.67-1.76-2.95-1.76-1.25 0-2.2 0.77-2.91 1.68-0.31 0.4-0.59 0.83-0.86 1.28-0.33-0.6-0.7-1.21-1.15-1.78-0.77-0.97-1.97-1.86-3.48-1.86-1.5 0-2.71 0.86-3.48 1.83-0.45 0.57-0.82 1.18-1.16 1.78-0.26-0.45-0.54-0.88-0.85-1.27-0.72-0.91-1.67-1.66-2.92-1.66-1.27 0-2.23 0.82-2.95 1.75-0.3 0.39-0.57 0.81-0.83 1.24-0.34-0.58-0.72-1.19-1.18-1.75-0.78-0.98-1.93-1.92-3.44-1.92-1.4 0-2.58 0.76-3.37 1.7-0.5 0.58-0.91 1.23-1.29 1.92-0.34-0.52-0.7-1-1.06-1.42-0.77-0.86-1.65-1.52-2.69-1.52-1.13 0-2 0.84-2.79 1.77-0.33 0.39-0.65 0.82-0.94 1.25-0.34-0.57-0.72-1.18-1.17-1.74-0.8-0.99-1.97-1.96-3.5-1.96zm-8.41 2.06c0.78 0 1.42 0.45 2.03 1.22 0.37 0.46 0.71 1.03 1.01 1.62-0.01 0.03-0.03 0.06-0.04 0.09-0.44 0.93-0.95 1.93-1.49 2.61-0.55 0.69-0.99 0.97-1.51 0.97-0.46 0-1.27-0.43-1.89-1.13-0.63-0.71-0.97-1.68-0.97-1.85h-0.66c0.06-0.52 0.48-1.45 1.13-2.18 0.71-0.79 1.64-1.35 2.39-1.35zm16.8 0c0.46 0 1.05 0.34 1.7 1.07 0.43 0.49 0.87 1.13 1.31 1.85-0.6 1.1-1.24 2.1-1.81 2.74-0.58 0.66-1.03 0.85-1.2 0.85 0.01 0-0.63-0.29-1.27-1.05-0.61-0.72-1.23-1.7-1.71-2.51 0.37-0.58 0.78-1.17 1.2-1.66 0.69-0.82 1.41-1.29 1.78-1.29zm16.8 0c0.75 0 1.29 0.39 1.88 1.14 0.38 0.48 0.75 1.11 1.12 1.78-0.61 1.05-1.14 2.06-1.65 2.71-0.52 0.66-0.85 0.88-1.35 0.88-0.44 0-0.83-0.25-1.37-0.96-0.52-0.68-1.04-1.67-1.62-2.62 0.36-0.61 0.72-1.22 1.09-1.71 0.61-0.78 1.18-1.22 1.9-1.22zm16.8 0c0.72 0 1.29 0.44 1.9 1.23 0.37 0.49 0.73 1.1 1.09 1.72-0.54 1.01-1.07 2-1.59 2.65-0.53 0.67-0.9 0.91-1.4 0.91-0.48 0-0.81-0.22-1.34-0.9-0.51-0.66-1.04-1.66-1.65-2.68 0.38-0.66 0.74-1.28 1.12-1.77 0.59-0.76 1.13-1.16 1.87-1.16zm-42 0.68c0.44 0 0.88 0.28 1.43 0.97 0.56 0.68 1.09 1.68 1.62 2.59 0.01 0.01 0.01 0.02 0.02 0.03-0.35 0.61-0.72 1.22-1.12 1.71-0.62 0.77-1.23 1.22-1.95 1.22-0.74 0-1.39-0.43-2.01-1.17-0.4-0.48-0.77-1.07-1.1-1.68 0.04-0.07 0.07-0.15 0.11-0.22 0.42-0.9 0.95-1.86 1.5-2.52 0.55-0.65 1.02-0.93 1.5-0.93zm16.8 0c0.45 0 0.83 0.25 1.38 0.92 0.54 0.67 1.08 1.68 1.68 2.65-0.38 0.65-0.76 1.28-1.17 1.78-0.6 0.75-1.18 1.17-1.89 1.17-0.78 0-1.29-0.32-1.86-1-0.41-0.48-0.81-1.14-1.23-1.9 0.02-0.04 0.04-0.07 0.06-0.1 0.63-1.18 1.18-2.17 1.67-2.76 0.5-0.58 0.79-0.76 1.36-0.76zm16.8 0c0.6 0 0.9 0.22 1.4 0.85s1.02 1.65 1.66 2.72c0 0.01 0.01 0.01 0.01 0.02-0.39 0.69-0.76 1.33-1.15 1.83-0.57 0.71-1.09 1.1-1.92 1.1-0.84 0-1.36-0.37-1.93-1.08-0.38-0.49-0.75-1.14-1.15-1.84 0.01-0.02 0.02-0.03 0.02-0.04 0.64-1.1 1.16-2.11 1.65-2.73 0.5-0.62 0.79-0.83 1.41-0.83zm16.8 0c1.79 0 2.86 1.48 2.86 2.85h0.67c0 0.29-0.37 1.37-1.03 2.21-0.67 0.83-1.56 1.46-2.5 1.46-1 0-1.51-0.42-2.05-1.16-0.35-0.49-0.67-1.11-1.02-1.77 0.01-0.02 0.03-0.05 0.04-0.08 0.6-1.11 1.02-2.12 1.46-2.7 0.43-0.58 0.69-0.81 1.57-0.81z" fill="#005073" pointer-events="none"/>
 <rect x="531" y="438" width="160" height="260" rx="24" ry="10.2" fill="#bac8d3" fill-opacity=".6" pointer-events="none" stroke-width=".651"/>
 <g fill="none" pointer-events="none" stroke="#23445d" stroke-miterlimit="10" stroke-width="4">
  <path d="m668 423v46q0 10-10 9.81l-43.5-0.83"/>
  <path d="m668 423v116q0 10-10 10h-31.5q-10 0-9.99-1l0.01-1.01"/>
  <path d="m668 423v186q0 10-10 10.2l-40.5 0.78"/>
 </g>
 <text x="599.5" y="685.61041" fill="#23445d" font-family="Helvetica" font-size="14px" font-weight="bold" text-anchor="middle">Staff</text>
 <rect x="198" y="438" width="160" height="260" rx="24" ry="10.2" fill="#bac8d3" fill-opacity=".6" pointer-events="none" stroke-width=".651"/>
 <g fill="none" pointer-events="none" stroke="#23445d" stroke-miterlimit="10" stroke-width="4">
  <path d="m334 423v46q0 10-10 9.81l-43.5-0.83"/>
  <path d="m334 423v116q0 10-10 10h-31.5q-10 0-9.99-1l0.01-1.01"/>
  <path d="m334 423v186q0 10-10 10.2l-40.5 0.78"/>
 </g>
 <text x="279.5" y="685.61041" fill="#23445d" font-family="Helvetica" font-size="14px" font-weight="bold" text-anchor="middle">Classroom 2</text>
 <rect x="-.5" y="438" width="160" height="260" rx="24" ry="10.2" fill="#bac8d3" fill-opacity=".6" pointer-events="none" stroke-width=".651"/>
 <g fill="none" pointer-events="none" stroke="#23445d" stroke-miterlimit="10" stroke-width="4">
  <path d="m136 423v46q0 10-10 9.81l-43.5-0.83"/>
  <path d="m136 423v116q0 10-10 10h-31.5q-10 0-9.99-1l0.01-1.01"/>
  <path d="m136 423v186q0 10-10 10.2l-40.5 0.78"/>
 </g>
 <text x="83.5" y="685.61041" fill="#23445d" font-family="Helvetica" font-size="14px" font-weight="bold" text-anchor="middle">Classroom 1</text>
 <use transform="translate(-414 -5.39)" xlink:href="#a"/>
 <use transform="translate(-214 -5.39)" xlink:href="#a"/>
 <use transform="translate(120 -5.39)" xlink:href="#a"/>
 <use transform="translate(320 -5.39)" xlink:href="#a"/>
 <use transform="translate(83 373)" xlink:href="#c"/>
 <use transform="translate(285 373)" xlink:href="#c"/>
 <use transform="translate(613 373)" xlink:href="#c"/>
</svg>
